# AST/ASF file generated using VICON BodyLanguage
# -----------------------------------------------
:version 1.10
:name VICON
:units
  mass 1.0
  length 0.45
  angle deg
:documentation
   .ast/.asf automatically generated from VICON data using
   VICON BodyBuilder and BodyLanguage model FoxedUp or BRILLIANT.MOD
:root
   order TX TY TZ RX RY RZ
   axis XYZ
   position 0 0 0  
   orientation 0 0 0 
:bonedata
  begin
     id 1 
     name lhipjoint
     direction 0.566809 -0.746272 0.349008 
     length 2.40479 
     axis 0 0 0  XYZ
  end
  begin
     id 2 
     name lfemur
     direction 0.34202 -0.939693 0  
     length 7.1578  
     axis 0 0 20  XYZ
    dof rx ry rz
    limits (-160.0 20.0)
           (-70.0 70.0)
           (-60.0 70.0)
  end
  begin
     id 3 
     name ltibia
     direction 0.34202 -0.939693 0   
     length 7.49137   
     axis 0 0 20   XYZ
    dof rx
    limits (-10.0 170.0)
  end
  begin
     id 4 
     name lfoot
     direction 0.0665746 -0.182912 0.980873   
     length 2.36784   
     axis -90 7.62852e-016 20   XYZ
    dof rx rz
    limits (-45.0 90.0)
           (-70.0 20.0)
  end
  begin
     id 5 
     name ltoes
     direction 1.53601e-011 -4.22058e-011 1   
     length 1.18966   
     axis -90 7.62852e-016 20   XYZ
    dof rx
    limits (-90.0 20.0)
  end
  begin
     id 6 
     name rhipjoint
     direction -0.550236 -0.756381 0.353735   
     length 2.37265  
     axis 0 0 0  XYZ 
  end
  begin
     id 7 
     name rfemur
     direction -0.34202 -0.939693 0   
     length 7.43386   
     axis 0 0 -20   XYZ
    dof rx ry rz
    limits (-160.0 20.0)
           (-70.0 70.0)
           (-70.0 60.0)
  end
  begin
     id 8 
     name rtibia
     direction -0.34202 -0.939693 0   
     length 7.50908   
     axis 0 0 -20   XYZ
    dof rx
    limits (-10.0 170.0)
 end
 begin
     id 9 
     name rfoot
     direction -0.0683029 -0.187661 0.979856   
     length 2.41173  
     axis -90 -7.62852e-016 -20   XYZ
    dof rx rz
    limits (-45.0 90.0)
           (-20.0 70.0)
  end
  begin
     id 10 
     name rtoes
     direction -1.53528e-011 -4.21968e-011 1   
     length 1.21082   
     axis -90 -7.62852e-016 -20   XYZ
    dof rx
    limits (-90.0 20.0)
  end
  begin
     id 11 
     name lowerback
     direction 0.013823 0.995423 -0.0945635   
     length 2.04495   
     axis 0 0 0   XYZ
    dof rx ry rz
    limits (-20.0 45.0)
           (-30.0 30.0)
           (-30.0 30.0)
  end
  begin
     id 12 
     name upperback
     direction 0.0276657 0.9994 -0.020853   
     length 2.05008   
     axis 0 0 0   XYZ
    dof rx ry rz
    limits (-20.0 45.0)
           (-30.0 30.0)
           (-30.0 30.0)
  end
  begin
     id 13 
     name thorax
     direction 0.019782 0.999531 0.0233827   
     length 2.06488   
     axis 0 0 0   XYZ
    dof rx ry rz
    limits (-20.0 45.0)
           (-30.0 30.0)
           (-30.0 30.0)
  end
  begin
     id 14 
     name lowerneck
     direction -0.0308541 0.994709 0.0979874   
     length 1.75553   
     axis 0 0 0   XYZ
    dof rx ry rz
    limits (-20.0 45.0)
           (-30.0 30.0)
           (-30.0 30.0)
  end
  begin
     id 15 
     name upperneck
     direction 0.0588398 0.995804 -0.0700903   
     length 1.76878   
     axis 0 0 0   XYZ
    dof rx ry rz
    limits (-20.0 45.0)
           (-30.0 30.0)
           (-30.0 30.0)
  end
  begin
     id 16
     name head
     direction 0.0209966 0.999159 -0.0352225  
     length 1.77193  
     axis 0 0 0   XYZ
    dof rx ry rz
    limits (-20.0 45.0)
           (-30.0 30.0)
           (-30.0 30.0)
  end
  begin
     id 17 
     name lclavicle
     direction 0.938182 0.335073 -0.0868338  
     length 3.58396  
     axis 0 0 0   XYZ
    dof ry rz
    limits (-20.0 10.0)
           (0.0 20.0)
  end
  begin
     id 18 
     name lhumerus
     direction 1 -4.48971e-011 -1.26313e-017   
     length 4.983   
     axis 180 -30 -90   XYZ
    dof rx ry rz
    limits (-60.0 90.0)
           (-90.0 90.0)
           (-90.0 90.0)
  end
  begin
     id 19
     name lradius
     direction 1 -4.48948e-011 -5.89033e-027   
     length 3.48356   
     axis 180 -30 -90   XYZ
    dof rx
    limits (-10.0 170.0)
  end
  begin
     id 20
     name lwrist
     direction 1 -4.48977e-011 -1.48983e-026   
     length 1.74178   
     axis 9.0955e-015 90 90   XYZ
    dof ry
    limits (-180.0 0.0)
 end
  begin
     id 21 
     name lhand
     direction 1 -4.49046e-011 -2.98066e-026   
     length 0.715259   
     axis 1.90115e-014 90 90   XYZ
    dof rx rz
    limits (-90.0 90.0)
           (-45.0 45.0)
  end
  begin
     id 22 
     name lfingers
     direction 1 -4.48907e-011 -5.95731e-026   
     length 0.576661   
     axis 3.80223e-014 90 90   XYZ
    dof rx
    limits (0.0 90.0)
  end
  begin
     id 23
     name lthumb
     direction 0.707107 -6.34963e-011 0.707107   
     length 0.827973   
     axis -90 45 -3.84942e-014   XYZ
    dof rx rz
    limits (-45.0 45.0)
           (-45.0 45.0)
  end
  begin
     id 24 
     name rclavicle
     direction -0.909637 0.398485 -0.11735   
     length 3.44819  
     axis 0 0 0   XYZ 
    dof ry rz
    limits (-10.0 20.0)
           (-20.0 0.0)
  end
  begin
     id 25 
     name rhumerus
     direction -1 -4.48978e-011 -1.09333e-027  
     length 5.2419   
     axis 180 30 90   XYZ
    dof rx ry rz
    limits (-90.0 60.0)
           (-90.0 90.0)
           (-90.0 90.0)
  end
  begin
     id 26 
     name rradius
     direction -1 -4.48953e-011 -7.61841e-027   
     length 3.44417   
     axis 180 30 90   XYZ
    dof rx
    limits (-10.0 170.0)
  end
  begin
     id 27 
     name rwrist
     direction -1 -4.48977e-011 -1.48983e-026   
     length 1.72209   
     axis 9.0955e-015 -90 -90   XYZ
    dof ry
    limits (-180.0 0.0)
  end
  begin
     id 28
     name rhand
     direction -1 -4.49027e-011 -2.98038e-026   
     length 0.622529   
     axis 1.90115e-014 -90 -90   XYZ
    dof rx rz
    limits (-90.0 90.0)
           (-45.0 45.0)
  end
  begin
     id 29
     name rfingers
     direction -1 -4.48838e-011 -5.95531e-026   
     length 0.501899   
     axis 3.80223e-014 -90 -90   XYZ
    dof rx
    limits (0.0 90.0)
  end
  begin
     id 30
     name rthumb
     direction -0.707107 -6.34937e-011 0.707107   
     length 0.720629   
     axis -90 -45 3.84942e-014   XYZ
    dof rx rz
    limits (-45.0 45.0)
           (-45.0 45.0)
  end
:hierarchy
  begin
    root lhipjoint rhipjoint lowerback
    lhipjoint lfemur
    lfemur ltibia
    ltibia lfoot
    lfoot ltoes
    rhipjoint rfemur
    rfemur rtibia
    rtibia rfoot
    rfoot rtoes
    lowerback upperback
    upperback thorax
    thorax lowerneck lclavicle rclavicle
    lowerneck upperneck
    upperneck head
    lclavicle lhumerus
    lhumerus lradius
    lradius lwrist
    lwrist lhand lthumb
    lhand lfingers
    rclavicle rhumerus
    rhumerus rradius
    rradius rwrist
    rwrist rhand rthumb
    rhand rfingers
  end

#!OML:ASF H:\Terrain\Patient Classification 1\PLAYGROUND\JustinFriday\JustinFriday.ASF
:FULLY-SPECIFIED
:DEGREES
490
root -23.9692 21.9574 -6.2976 213.463 71.5959 -156.277
lowerback 24.43 -6.00232 -0.00437522
upperback 5.85832 -7.05453 2.00626
thorax -6.7584 -3.17409 4.23541
lowerneck -10.9112 -3.30073 -7.97568
upperneck -14.1426 -1.82128 14.5304
head -2.08647 -0.502806 5.7833
rclavicle -4.69132e-014 1.59028e-014
rhumerus -27.2096 -3.63676 -81.2098
rradius 136.924
rwrist 9.25658
rhand -27.845 -15.8407
rfingers 7.12502
rthumb -1.23623 -45.8168
lclavicle -4.69132e-014 1.59028e-014
lhumerus 45.7574 -11.2546 54.4985
lradius 25.9804
lwrist -32.6555
lhand -18.6772 -21.1682
lfingers 7.12502
lthumb 7.61674 8.67463
rfemur -31.7458 -2.39129 37.0108
rtibia 43.2501
rfoot -19.2815 2.63631
rtoes 24.9053
lfemur -71.1279 25.9789 -9.00389
ltibia 110.767
lfoot -21.1466 -18.583
ltoes 4.41299
491
root -23.9364 21.9971 -6.33611 213.28 72.018 -156.493
lowerback 24.5871 -5.53652 -0.196043
upperback 5.94447 -6.4338 2.48333
thorax -6.70011 -2.86705 4.69339
lowerneck -10.2882 -3.97857 -7.72412
upperneck -16.0522 -2.68933 13.3246
head -2.70055 -0.950459 5.38006
rclavicle 1.56642e-013 -3.73715e-014
rhumerus -28.1632 -0.905212 -79.9375
rradius 137.034
rwrist 8.93582
rhand -31.9676 -17.4288
rfingers 7.12502
rthumb -5.21743 -47.3446
lclavicle 1.56642e-013 -3.73715e-014
lhumerus 45.6 -10.4586 57.8495
lradius 25.8324
lwrist -34.3139
lhand -19.2681 -21.392
lfingers 7.12502
lthumb 7.04639 8.47072
rfemur -31.2023 -1.99347 36.6119
rtibia 42.507
rfoot -18.8357 1.96928
rtoes 22.4775
lfemur -72.1967 25.8272 -10.1122
ltibia 110.918
lfoot -24.2091 -15.1968
ltoes -5.23532
492
root -23.8799 22.0358 -6.39022 213.446 72.3031 -156.194
lowerback 24.217 -5.09607 0.309066
upperback 6.35079 -5.69197 2.74958
thorax -6.1419 -2.51576 4.42564
lowerneck -9.19082 -4.47805 -9.61971
upperneck -17.8832 -3.03613 14.0289
head -3.31817 -1.06237 5.98688
rclavicle 1.08934e-013 -4.45278e-014
rhumerus -28.0988 -0.651359 -80.3547
rradius 136.627
rwrist 9.0404
rhand -33.3713 -17.3256
rfingers 7.12502
rthumb -6.57267 -47.2037
lclavicle 1.08934e-013 -4.45278e-014
lhumerus 46.0326 -10.7627 59.8801
lradius 25.9235
lwrist -35.0078
lhand -20.0432 -21.642
lfingers 7.12502
lthumb 6.29808 8.24438
rfemur -30.3084 -2.1408 36.3863
rtibia 41.5694
rfoot -18.361 2.07235
rtoes 20.9686
lfemur -73.036 26.7192 -9.54237
ltibia 110.809
lfoot -16.9597 -24.4281
ltoes 28.8287
493
root -23.8075 22.1043 -6.4574 214.342 72.557 -155.011
lowerback 23.7525 -5.44116 0.38814
upperback 6.77196 -6.15208 2.35564
thorax -5.47033 -2.75025 4.00858
lowerneck -9.3044 -3.98412 -6.72354
upperneck -18.1986 -2.61557 12.7136
head -3.54675 -0.979261 5.07799
rclavicle -2.38542e-014 -1.51076e-014
rhumerus -27.1882 0.710935 -84.0923
rradius 135.483
rwrist 9.68242
rhand -32.9521 -16.268
rfingers 7.12502
rthumb -6.16796 -46.1582
lclavicle -2.38542e-014 -1.51076e-014
lhumerus 45.1886 -11.6193 56.5956
lradius 26.9656
lwrist -32.2302
lhand -20.96 -20.8785
lfingers 7.12502
lthumb 5.413 9.0324
rfemur -29.1731 -2.35883 36.3238
rtibia 40.6354
rfoot -18.079 2.56592
rtoes 20.9111
lfemur -73.1516 26.1055 -10.4462
ltibia 110.554
lfoot -23.0764 -19.5341
ltoes 2.32518
494
root -23.777 22.1919 -6.47401 215.043 73.0642 -154.598
lowerback 24.0034 -5.31256 0.915925
upperback 6.37281 -5.91866 1.97155
thorax -6.14761 -2.63501 3.28417
lowerneck -9.43742 -4.11433 -6.14764
upperneck -17.4198 -2.96213 12.4254
head -3.27949 -1.1794 4.86228
rclavicle 7.87187e-014 -4.29375e-014
rhumerus -29.2611 3.51131 -84.8274
rradius 135.653
rwrist 9.6027
rhand -35.2778 -17.7572
rfingers 7.12502
rthumb -8.41286 -47.5697
lclavicle 7.87187e-014 -4.29375e-014
lhumerus 44.7817 -14.9012 52.3137
lradius 28.7064
lwrist -27.6278
lhand -21.5111 -19.1828
lfingers 7.12502
lthumb 4.88083 10.741
rfemur -28.7721 -2.10924 36.1878
rtibia 39.688
rfoot -17.4343 2.96253
rtoes 22.5461
lfemur -73.7505 25.233 -10.7628
ltibia 110.033
lfoot -25.3823 -17.1097
ltoes -2.42934
495
root -23.7681 22.2183 -6.51375 216.961 73.2917 -152.703
lowerback 24.6342 -5.07617 1.91168
upperback 6.06853 -5.34191 2.08616
thorax -6.906 -2.35308 2.75769
lowerneck -9.97784 -4.43773 -6.93817
upperneck -16.2031 -3.47548 12.5082
head -2.76143 -1.38005 4.97766
rclavicle 5.88403e-014 -2.70347e-014
rhumerus -29.9525 4.48078 -85.5193
rradius 135.056
rwrist 9.29737
rhand -36.4629 -18.098
rfingers 7.12502
rthumb -9.55647 -47.8613
lclavicle 5.88403e-014 -2.70347e-014
lhumerus 44.681 -16.1319 52.4001
lradius 29.0995
lwrist -27.2641
lhand -21.9383 -18.6777
lfingers 7.12502
lthumb 4.46839 11.2552
rfemur -28.4116 -1.93265 36.505
rtibia 38.8019
rfoot -16.4775 3.56935
rtoes 23.4481
lfemur -75.0267 25.3625 -10.677
ltibia 109.669
lfoot -25.5395 -17.8553
ltoes -7.91947
496
root -23.6753 22.1675 -6.62068 227.706 71.5427 -142.443
lowerback 23.3304 -6.58203 4.80147
upperback 5.88702 -6.73282 1.91175
thorax -6.75284 -3.07889 1.27623
lowerneck -8.17093 -2.52268 -3.66216
upperneck -17.054 -1.02797 12.2085
head -3.5899 -0.414736 4.38695
rclavicle -7.95139e-016 1.11319e-014
rhumerus -30.6291 9.17264 -91.2099
rradius 134.132
rwrist 9.75602
rhand -36.9268 -18.2393
rfingers 7.12502
rthumb -10.004 -47.9816
lclavicle -7.95139e-016 1.11319e-014
lhumerus 41.4071 -12.2738 53.058
lradius 28.1245
lwrist -31.0994
lhand -22.6547 -19.8909
lfingers 7.12502
lthumb 3.77659 10.0554
rfemur -28.5325 -1.86506 40.0462
rtibia 38.2647
rfoot -16.0754 4.86195
rtoes 23.9903
lfemur -78.2646 28.4869 -8.35578
ltibia 110.277
lfoot -24.4935 -22.1621
ltoes -3.98228
497
root -23.6683 22.3704 -6.56659 213 74.5113 -156.903
lowerback 24.718 -6.01994 -1.10985
upperback 5.78581 -7.50133 0.622766
thorax -7.01077 -3.37853 3.51418
lowerneck -8.46759 -2.17721 -3.86467
upperneck -15.7902 -0.621029 12.902
head -3.17908 -0.19968 4.61707
rclavicle 1.06549e-013 1.59028e-015
rhumerus -31.1709 11.32 -92.1738
rradius 133.642
rwrist 8.42135
rhand -37.6541 -18.8234
rfingers 7.12502
rthumb -10.7056 -48.5306
lclavicle 1.06549e-013 1.59028e-015
lhumerus 40.591 -15.1329 48.5517
lradius 30.0411
lwrist -26.2626
lhand -23.6565 -18.2546
lfingers 7.12502
lthumb 2.80913 11.7066
rfemur -27.4229 -1.55397 34.3887
rtibia 37.5581
rfoot -15.4188 3.96416
rtoes 25.6641
lfemur -75.5634 23.8104 -12.7162
ltibia 107.911
lfoot -23.7187 -21.2695
ltoes 2.99832
498
root -23.625 22.3305 -6.62074 214.538 74.1644 -155.508
lowerback 24.584 -6.09447 -0.424526
upperback 5.71108 -7.41468 0.863543
thorax -7.08531 -3.34618 3.3631
lowerneck -8.15624 -2.16418 -2.66931
upperneck -15.9826 -0.737496 12.1036
head -3.30753 -0.316762 4.16546
rclavicle 1.59028e-014 -1.11319e-014
rhumerus -31.5738 13.0813 -93.3134
rradius 133.02
rwrist 7.745
rhand -38.1923 -19.1958
rfingers 7.12502
rthumb -11.2247 -48.8755
lclavicle 1.59028e-014 -1.11319e-014
lhumerus 40.3171 -15.4772 49.1137
lradius 29.9813
lwrist -26.3027
lhand -24.6684 -18.0679
lfingers 7.12502
lthumb 1.83186 11.904
rfemur -27.2082 -1.83974 34.85
rtibia 36.9149
rfoot -14.9522 3.9293
rtoes 25.4922
lfemur -77.261 24.8729 -13.2139
ltibia 107.797
lfoot -24.4877 -22.3783
ltoes 1.41947
499
root -23.5742 22.4098 -6.66162 216.314 74.05 -153.669
lowerback 24.4757 -6.00696 0.283094
upperback 5.73954 -7.07884 1.33777
thorax -7.03849 -3.19279 3.37389
lowerneck -7.50005 -2.3839 -4.39018
upperneck -17.0673 -0.792198 12.5908
head -3.70436 -0.301977 4.63775
rclavicle 5.40694e-014 1.43125e-014
rhumerus -31.2837 14.6585 -93.5001
rradius 132.072
rwrist 7.23198
rhand -38.7321 -19.9646
rfingers 7.12502
rthumb -11.7454 -49.6153
lclavicle 5.40694e-014 1.43125e-014
lhumerus 40.0515 -15.0807 51.1848
lradius 29.5079
lwrist -27.3051
lhand -25.4258 -18.6648
lfingers 7.12502
lthumb 1.10034 11.3121
rfemur -26.4017 -2.12353 35.3024
rtibia 35.9208
rfoot -14.5941 4.15102
rtoes 23.8809
lfemur -76.7867 23.0581 -12.1011
ltibia 106.707
lfoot -25.6914 -21.0541
ltoes -7.84625
500
root -23.5211 22.455 -6.70546 218.416 74.2668 -151.443
lowerback 24.3627 -5.65554 0.991519
upperback 5.80616 -6.39927 1.80893
thorax -6.95956 -2.87193 3.27685
lowerneck -8.17913 -2.9124 -4.73061
upperneck -16.6909 -1.63078 11.8995
head -3.42016 -0.651461 4.46455
rclavicle -5.00937e-014 2.54444e-014
rhumerus -31.031 15.2462 -93.1698
rradius 131.516
rwrist 7.41978
rhand -38.789 -20.2701
rfingers 7.12502
rthumb -11.8002 -49.9177
lclavicle -5.00937e-014 2.54444e-014
lhumerus 39.966 -15.7947 51.9307
lradius 29.8021
lwrist -26.6505
lhand -26.3822 -19.2804
lfingers 7.12502
lthumb 0.17659 10.6993
rfemur -25.7176 -1.91153 35.5422
rtibia 35.3461
rfoot -14.3231 4.68289
rtoes 24.7468
lfemur -76.6841 22.8928 -11.5668
ltibia 106.006
lfoot -25.4452 -21.9546
ltoes -2.47678
501
root -23.4762 22.4939 -6.74596 220.658 74.3723 -149.231
lowerback 24.2481 -5.12678 1.99829
upperback 5.79039 -5.43544 2.14993
thorax -7.01676 -2.4162 2.7925
lowerneck -8.36621 -3.74659 -5.7936
upperneck -16.7594 -2.68595 12.1791
head -3.2915 -1.11775 4.72686
rclavicle 1.27222e-014 -1.11319e-014
rhumerus -30.6254 14.6613 -93.0205
rradius 130.613
rwrist 8.17737
rhand -38.417 -19.55
rfingers 7.12502
rthumb -11.4414 -49.2178
lclavicle 1.27222e-014 -1.11319e-014
lhumerus 40.6101 -16.4838 53.716
lradius 29.147
lwrist -27.564
lhand -27.6823 -20.5433
lfingers 7.12502
lthumb -1.07905 9.43374
rfemur -25.0778 -1.42034 35.7992
rtibia 34.2934
rfoot -13.6927 4.85769
rtoes 25.975
lfemur -76.9651 23.0775 -11.5185
ltibia 105.312
lfoot -25.5497 -22.212
ltoes -5.29969
